<?xml version="1.0" encoding="UTF-8" standalone="no"?>
<svg width="200px" height="200px" viewBox="0 0 200 200" version="1.1" xmlns="http://www.w3.org/2000/svg" xmlns:xlink="http://www.w3.org/1999/xlink" xmlns:sketch="http://www.bohemiancoding.com/sketch/ns">
    <!-- Generator: Sketch 3.3.2 (12043) - http://www.bohemiancoding.com/sketch -->
    <title>client-billing</title>
    <desc>Created with Sketch.</desc>
    <defs></defs>
    <g id="Page-1" stroke="none" stroke-width="1" fill="none" fill-rule="evenodd" sketch:type="MSPage">
        <g id="client-billing" sketch:type="MSArtboardGroup">
            <g id="client-billing-copy" sketch:type="MSLayerGroup" transform="translate(18.677419, 9.500000)">
                <path d="M79.2419355,31.172379 L36.125,31.172379 C34.3770161,31.172379 33.2116935,30.0070565 33.2116935,28.2590726 C33.2116935,26.5110887 34.3770161,25.3457661 36.125,25.3457661 L79.2419355,25.3457661 C80.9899194,25.3457661 82.1552419,26.5110887 82.1552419,28.2590726 C82.1552419,30.0070565 80.6985887,31.172379 79.2419355,31.172379 L79.2419355,31.172379 Z" id="Shape" fill="#F99A23" sketch:type="MSShapeGroup"></path>
                <path d="M90.8951613,51.2741935 L36.125,51.2741935 C35.2510081,51.2741935 34.6683468,50.6915323 34.6683468,49.8175403 C34.6683468,48.9435484 35.2510081,48.3608871 36.125,48.3608871 L90.8951613,48.3608871 C91.7691532,48.3608871 92.3518145,48.9435484 92.3518145,49.8175403 C92.3518145,50.6915323 91.7691532,51.2741935 90.8951613,51.2741935 L90.8951613,51.2741935 Z" id="Shape" fill="#F99A23" sketch:type="MSShapeGroup"></path>
                <path d="M133.429435,51.2741935 L97.3044355,51.2741935 C96.4304435,51.2741935 95.8477823,50.6915323 95.8477823,49.8175403 C95.8477823,48.9435484 96.4304435,48.3608871 97.3044355,48.3608871 L133.138105,48.3608871 C134.012097,48.3608871 134.594758,48.9435484 134.594758,49.8175403 C134.594758,50.6915323 134.012097,51.2741935 133.429435,51.2741935 L133.429435,51.2741935 Z" id="Shape" fill="#F99A23" sketch:type="MSShapeGroup"></path>
                <path d="M133.429435,69.6280242 L90.8951613,69.6280242 C90.0211694,69.6280242 89.4385081,69.0453629 89.4385081,68.171371 C89.4385081,67.297379 90.0211694,66.7147177 90.8951613,66.7147177 L133.138105,66.7147177 C134.012097,66.7147177 134.594758,67.297379 134.594758,68.171371 C134.594758,69.0453629 134.012097,69.6280242 133.429435,69.6280242 L133.429435,69.6280242 Z" id="Shape" fill="#F99A23" sketch:type="MSShapeGroup"></path>
                <path d="M84.1945565,69.6280242 L62.9274194,69.6280242 C62.0534274,69.6280242 61.4707661,69.0453629 61.4707661,68.171371 C61.4707661,67.297379 62.0534274,66.7147177 62.9274194,66.7147177 L84.1945565,66.7147177 C85.0685484,66.7147177 85.6512097,67.297379 85.6512097,68.171371 C85.6512097,69.0453629 85.0685484,69.6280242 84.1945565,69.6280242 L84.1945565,69.6280242 Z" id="Shape" fill="#F99A23" sketch:type="MSShapeGroup"></path>
                <path d="M55.0614919,69.6280242 L36.125,69.6280242 C35.2510081,69.6280242 34.6683468,69.0453629 34.6683468,68.171371 C34.6683468,67.297379 35.2510081,66.7147177 36.125,66.7147177 L55.0614919,66.7147177 C55.9354839,66.7147177 56.5181452,67.297379 56.5181452,68.171371 C56.5181452,69.0453629 55.9354839,69.6280242 55.0614919,69.6280242 L55.0614919,69.6280242 Z" id="Shape" fill="#F99A23" sketch:type="MSShapeGroup"></path>
                <path d="M71.6673387,124.398185 L84.1945565,124.398185" id="Shape" fill="#FFFFFF" sketch:type="MSShapeGroup"></path>
                <path d="M156.153226,66.7147177 C156.153226,66.7147177 153.822581,65.2580645 150.326613,62.6360887 L150.326613,9.61391129 C150.326613,5.53528226 147.121976,2.33064516 143.043347,2.33064516 L20.9758065,2.33064516 C16.8971774,2.33064516 13.6925403,5.53528226 13.6925403,9.61391129 L13.6925403,62.3447581 C9.90524194,64.9667339 7.57459677,66.7147177 7.57459677,66.7147177 C4.36995968,68.7540323 2.62197581,72.25 2.62197581,76.0372984 L2.62197581,171.885081 C2.62197581,175.381048 5.53528226,178.294355 9.03125,178.294355 L154.696573,178.294355 C158.19254,178.294355 161.105847,175.381048 161.105847,171.885081 L161.105847,75.7459677 C160.814516,72.25 159.066532,68.7540323 156.153226,66.7147177 L156.153226,66.7147177 Z M150.326613,69.9193548 C150.617944,70.2106855 151.200605,70.5020161 151.491935,70.5020161 L150.326613,71.6673387 L150.326613,69.9193548 L150.326613,69.9193548 Z M19.2278226,9.61391129 C19.2278226,8.73991935 19.8104839,8.15725806 20.6844758,8.15725806 L142.752016,8.15725806 C143.626008,8.15725806 144.208669,8.73991935 144.208669,9.61391129 L144.208669,77.202621 L134.886089,86.5252016 L72.8326613,86.5252016 C71.9586694,86.5252016 71.3760081,87.1078629 71.3760081,87.9818548 C71.3760081,88.8558468 71.9586694,89.4385081 72.8326613,89.4385081 L131.972782,89.4385081 L117.988911,103.422379 L105.461694,103.422379 L108.666331,100.217742 L106.627016,98.1784274 L101.383065,103.422379 L100.217742,103.422379 C99.34375,103.422379 98.7610887,104.00504 98.7610887,104.879032 C98.7610887,105.170363 99.0524194,105.461694 99.0524194,105.753024 L82.1552419,122.650202 L71.9586694,122.650202 C71.3760081,122.358871 71.0846774,122.06754 70.5020161,121.77621 L78.9506048,113.327621 L76.9112903,111.288306 L67.8800403,120.319556 C65.5493952,118.862903 62.9274194,117.114919 60.3054435,115.366935 L68.171371,107.501008 L67.0060484,106.627016 L88.8558468,106.627016 C89.7298387,106.627016 90.3125,106.044355 90.3125,105.170363 C90.3125,104.296371 89.7298387,103.71371 88.8558468,103.71371 L55.3528226,103.71371 L57.9747984,101.091734 L55.9354839,99.0524194 L51.2741935,103.71371 L42.5342742,103.71371 C41.6602823,103.131048 41.077621,102.839718 40.203629,102.257056 L48.0695565,94.391129 L46.0302419,92.3518145 L37.8729839,100.509073 C35.2510081,98.7610887 32.9203629,97.0131048 30.2983871,95.5564516 L36.125,89.7298387 L36.125,89.7298387 L63.5100806,89.7298387 C64.3840726,89.7298387 64.9667339,89.1471774 64.9667339,88.2731855 C64.9667339,87.3991935 64.3840726,86.8165323 63.5100806,86.8165323 L36.125,86.8165323 C35.8336694,86.8165323 35.2510081,87.1078629 34.9596774,87.1078629 L34.6683468,86.8165323 L27.6764113,93.8084677 C25.0544355,92.0604839 22.7237903,90.3125 20.1018145,88.8558468 L27.6764113,81.28125 L25.6370968,79.2419355 L19.2278226,85.6512097 L19.2278226,9.61391129 L19.2278226,9.61391129 Z M144.5,81.5725806 L144.5,87.3991935 C138.673387,91.4778226 132.264113,95.8477823 126.146169,99.9264113 L144.5,81.5725806 L144.5,81.5725806 Z M113.910282,108.083669 C104.00504,114.784274 94.9737903,120.610887 88.8558468,124.398185 C88.8558468,124.398185 88.8558468,124.398185 88.5645161,124.398185 C84.7772177,126.728831 82.4465726,128.185484 81.28125,128.476815 C80.9899194,128.476815 80.9899194,128.185484 80.6985887,128.185484 L83.0292339,125.854839 L84.1945565,125.854839 C85.0685484,125.854839 85.6512097,125.272177 85.6512097,124.398185 C85.6512097,124.106855 85.6512097,123.815524 85.359879,123.524194 L102.548387,106.335685 L115.075605,106.335685 L113.910282,108.083669 L113.910282,108.083669 Z M79.2419355,125.854839 L78.3679435,126.728831 C77.7852823,126.4375 77.4939516,126.146169 76.9112903,125.854839 L79.2419355,125.854839 L79.2419355,125.854839 Z M52.4395161,106.627016 L64.9667339,106.627016 L57.6834677,113.910282 C55.3528226,112.162298 52.7308468,110.705645 50.108871,108.957661 L52.4395161,106.627016 L52.4395161,106.627016 Z M48.3608871,106.627016 L47.7782258,107.209677 C47.4868952,106.918347 47.1955645,106.918347 46.9042339,106.627016 L48.3608871,106.627016 L48.3608871,106.627016 Z M8.15725806,76.0372984 C8.15725806,74.2893145 9.03125,72.5413306 10.4879032,71.6673387 C10.4879032,71.6673387 11.6532258,70.7933468 13.4012097,69.6280242 L13.4012097,84.1945565 C11.9445565,83.3205645 10.7792339,82.4465726 9.61391129,81.5725806 C9.03125,81.28125 8.73991935,80.6985887 8.15725806,80.1159274 L8.15725806,76.0372984 L8.15725806,76.0372984 Z M154.987903,171.885081 C154.987903,172.176411 154.696573,172.467742 154.405242,172.467742 L8.73991935,172.467742 C8.44858871,172.467742 8.15725806,172.176411 8.15725806,171.885081 L8.15725806,83.9032258 C9.90524194,85.0685484 11.6532258,86.233871 13.4012097,87.3991935 L13.4012097,87.6905242 L13.6925403,87.6905242 C30.0070565,99.0524194 55.6441532,116.240927 70.5020161,125.563508 C70.5020161,125.563508 70.7933468,125.854839 71.0846774,125.854839 L71.3760081,125.854839 C50.9828629,139.83871 19.8104839,160.814516 16.6058468,161.688508 C15.7318548,161.688508 15.1491935,162.271169 15.1491935,163.145161 C15.1491935,164.019153 15.7318548,164.601815 16.6058468,164.601815 L16.6058468,164.601815 C20.1018145,164.601815 57.1008065,139.256048 74.2893145,127.602823 C78.3679435,129.933468 80.9899194,131.681452 81.8639113,131.681452 L81.8639113,131.681452 C82.7379032,131.681452 85.6512097,130.224798 89.7298387,127.602823 C106.627016,139.256048 143.917339,164.893145 147.704637,164.893145 L147.704637,164.893145 C148.578629,164.893145 149.16129,164.310484 149.16129,163.436492 C149.16129,162.5625 148.578629,161.979839 147.704637,161.979839 C144.5,161.397177 112.74496,140.13004 92.3518145,125.854839 C108.666331,115.658266 139.547379,94.391129 155.279234,83.9032258 L155.279234,171.885081 L154.987903,171.885081 Z" id="Shape" fill="#F99A23" sketch:type="MSShapeGroup"></path>
            </g>
        </g>
    </g>
</svg>
