<svg width="174.2" height="48.048" viewBox="0 0 174.2 48.048" xmlns="http://www.w3.org/2000/svg"><g id="svgGroup" stroke-linecap="round" fill-rule="evenodd" font-size="9pt" stroke="#f99a23" stroke-width="0.25mm" fill="#f99a23" style="stroke:#f99a23;stroke-width:0.25mm;fill:#f99a23"><path d="M 169.156 11.232 L 174.2 11.232 Q 173.628 13.208 172.588 16.146 Q 171.548 19.084 170.066 22.49 A 110.872 110.872 0 0 1 167.638 27.687 A 124.43 124.43 0 0 1 166.738 29.458 Q 164.892 33.02 162.708 36.296 Q 161.044 38.74 159.38 40.898 A 24.855 24.855 0 0 1 156.981 43.595 A 21.57 21.57 0 0 1 155.818 44.642 Q 153.92 46.228 151.632 47.138 A 12.751 12.751 0 0 1 148.466 47.931 A 16.203 16.203 0 0 1 146.484 48.048 A 10.243 10.243 0 0 1 144.704 47.899 A 8.677 8.677 0 0 1 143.78 47.684 A 11.417 11.417 0 0 1 143.132 47.475 Q 142.371 47.203 141.96 46.904 L 143.624 42.952 A 3.301 3.301 0 0 0 144.128 43.28 Q 144.389 43.42 144.706 43.541 A 6.664 6.664 0 0 0 145.028 43.654 A 5.8 5.8 0 0 0 146.151 43.893 A 7.446 7.446 0 0 0 147.004 43.94 A 10.405 10.405 0 0 0 149.469 43.661 A 7.918 7.918 0 0 0 152.126 42.484 A 16.549 16.549 0 0 0 154.514 40.457 A 21.524 21.524 0 0 0 156.104 38.636 A 109.045 109.045 0 0 1 153.316 27.323 A 121.859 121.859 0 0 1 152.958 25.376 Q 151.736 18.408 151.476 11.232 L 156.416 11.232 Q 156.468 13.572 156.676 16.354 Q 156.884 19.136 157.274 22.126 Q 157.664 25.116 158.21 28.132 A 76.019 76.019 0 0 0 159.261 33.037 A 68.19 68.19 0 0 0 159.484 33.904 Q 161.46 30.784 163.072 27.43 A 109.098 109.098 0 0 0 164.935 23.349 A 91.139 91.139 0 0 0 165.906 21.008 Q 167.128 17.94 167.96 15.366 Q 168.67 13.169 169.039 11.711 A 26.353 26.353 0 0 0 169.156 11.232 Z M 73.84 15.392 L 68.328 38.272 L 63.492 38.272 L 69.732 12.272 A 36.056 36.056 0 0 1 72.874 11.474 A 43.148 43.148 0 0 1 74.906 11.102 Q 77.395 10.707 79.405 10.665 A 22.536 22.536 0 0 1 79.872 10.66 A 14.142 14.142 0 0 1 81.731 10.776 Q 82.925 10.934 83.902 11.31 A 8.329 8.329 0 0 1 85.344 12.022 A 6.377 6.377 0 0 1 86.632 13.078 A 6.78 6.78 0 0 1 87.998 15.298 A 8.039 8.039 0 0 1 88.166 15.782 A 10.971 10.971 0 0 1 88.617 18.154 A 13.28 13.28 0 0 1 88.66 19.24 A 15.437 15.437 0 0 1 88.562 20.946 A 18.384 18.384 0 0 1 88.452 21.762 Q 88.244 23.088 87.932 24.44 L 84.604 38.272 L 79.768 38.272 L 82.836 25.48 Q 83.2 24.024 83.538 22.516 Q 83.876 21.008 83.876 19.656 Q 83.876 17.576 82.732 16.198 A 3.176 3.176 0 0 0 81.537 15.332 Q 80.369 14.82 78.468 14.82 Q 77.168 14.82 75.92 14.976 Q 74.672 15.132 73.84 15.392 Z M 22.464 11.7 L 20.644 15.756 A 6.527 6.527 0 0 0 19.618 15.295 A 8.647 8.647 0 0 0 18.694 15.028 A 8.551 8.551 0 0 0 17.807 14.875 Q 16.941 14.768 15.808 14.768 A 9.959 9.959 0 0 0 12.974 15.16 A 8.705 8.705 0 0 0 11.232 15.886 Q 9.204 17.004 7.774 18.85 Q 6.344 20.696 5.59 23.114 Q 4.836 25.532 4.836 28.132 A 11.433 11.433 0 0 0 4.971 29.917 A 9.961 9.961 0 0 0 5.122 30.68 A 5.331 5.331 0 0 0 5.993 32.598 A 5.154 5.154 0 0 0 6.136 32.786 A 4.617 4.617 0 0 0 7.438 33.893 A 5.83 5.83 0 0 0 8.086 34.216 Q 9.065 34.633 10.462 34.716 A 12.145 12.145 0 0 0 11.18 34.736 A 10.816 10.816 0 0 0 12.485 34.654 A 12.987 12.987 0 0 0 13.156 34.554 A 18.983 18.983 0 0 0 14.38 34.3 A 15.468 15.468 0 0 0 15.08 34.112 Q 15.964 33.852 16.666 33.566 A 7.538 7.538 0 0 0 17.03 33.407 Q 17.377 33.244 17.59 33.09 A 1.674 1.674 0 0 0 17.68 33.02 L 18.096 37.128 A 6.351 6.351 0 0 1 17.393 37.506 Q 16.624 37.865 15.484 38.215 A 26.393 26.393 0 0 1 15.028 38.35 A 14.858 14.858 0 0 1 12.657 38.817 A 20.23 20.23 0 0 1 10.296 38.948 A 14.063 14.063 0 0 1 8.012 38.771 A 10.523 10.523 0 0 1 5.876 38.194 A 9.172 9.172 0 0 1 3.62 36.936 A 8.172 8.172 0 0 1 2.652 36.062 A 9.149 9.149 0 0 1 0.763 33.021 A 10.514 10.514 0 0 1 0.676 32.786 A 11.675 11.675 0 0 1 0.066 29.992 A 14.338 14.338 0 0 1 0 28.6 Q 0 25.064 1.066 21.788 Q 2.132 18.512 4.212 16.016 Q 6.292 13.52 9.308 12.038 A 14.328 14.328 0 0 1 13.647 10.731 A 18.363 18.363 0 0 1 16.224 10.556 Q 17.94 10.556 19.5 10.79 Q 21.06 11.024 22.464 11.7 Z M 96.928 38.532 L 94.692 47.892 L 89.856 47.892 L 98.384 12.376 A 23.135 23.135 0 0 1 101.725 11.32 A 27.205 27.205 0 0 1 103.142 11.024 A 30.359 30.359 0 0 1 105.767 10.659 A 23.134 23.134 0 0 1 107.9 10.556 A 15 15 0 0 1 109.925 10.686 Q 110.983 10.83 111.886 11.135 A 8.703 8.703 0 0 1 112.294 11.284 A 9.067 9.067 0 0 1 114.119 12.244 A 7.49 7.49 0 0 1 115.336 13.286 A 8.261 8.261 0 0 1 117.121 16.275 A 9.472 9.472 0 0 1 117.13 16.302 A 11.079 11.079 0 0 1 117.675 18.919 A 13.491 13.491 0 0 1 117.728 20.124 Q 117.728 23.712 116.636 27.066 Q 115.544 30.42 113.282 33.02 A 15.896 15.896 0 0 1 108.842 36.545 A 19.049 19.049 0 0 1 107.562 37.18 Q 104.205 38.694 99.648 38.739 A 28.374 28.374 0 0 1 99.372 38.74 A 14.621 14.621 0 0 1 98.696 38.724 A 18.848 18.848 0 0 1 98.124 38.688 A 12.398 12.398 0 0 1 97.562 38.633 Q 97.285 38.599 97.04 38.554 A 7.193 7.193 0 0 1 96.928 38.532 Z M 143.312 37.96 L 139.048 38.584 Q 138.788 38.012 138.528 37.31 A 9.73 9.73 0 0 1 138.132 35.925 A 10.725 10.725 0 0 1 138.112 35.828 A 11.216 11.216 0 0 1 137.144 36.608 Q 136.247 37.258 135.044 37.908 A 8.22 8.22 0 0 1 132.825 38.704 Q 131.852 38.91 130.732 38.942 A 14.632 14.632 0 0 1 130.312 38.948 A 12.046 12.046 0 0 1 128.497 38.819 Q 127.333 38.641 126.386 38.22 A 7.272 7.272 0 0 1 124.426 36.958 A 6.658 6.658 0 0 1 123.708 36.192 A 8.231 8.231 0 0 1 122.416 33.875 A 9.815 9.815 0 0 1 122.174 33.124 A 13.291 13.291 0 0 1 121.75 30.78 A 16.739 16.739 0 0 1 121.68 29.224 Q 121.68 25.74 122.85 22.412 Q 124.02 19.084 126.36 16.484 A 16.929 16.929 0 0 1 130.644 13.082 A 20.412 20.412 0 0 1 132.236 12.272 A 17.379 17.379 0 0 1 136.593 10.969 A 23.667 23.667 0 0 1 140.504 10.66 A 15.527 15.527 0 0 1 141.772 10.716 Q 142.437 10.77 143.184 10.879 A 29.197 29.197 0 0 1 143.78 10.972 A 12.347 12.347 0 0 1 145.421 11.356 A 8.934 8.934 0 0 1 147.004 12.012 L 143 28.34 A 49.795 49.795 0 0 0 142.667 30.006 A 42.791 42.791 0 0 0 142.558 30.628 A 13.603 13.603 0 0 0 142.382 32.471 A 15.343 15.343 0 0 0 142.376 32.916 Q 142.376 34.112 142.584 35.334 A 12.892 12.892 0 0 0 142.893 36.684 A 17.129 17.129 0 0 0 143.312 37.96 Z M 29.234 38.629 A 11.59 11.59 0 0 0 32.032 38.948 A 16.525 16.525 0 0 0 35.132 38.67 A 12.021 12.021 0 0 0 39.208 37.128 Q 42.172 35.308 44.044 32.5 Q 45.916 29.692 46.774 26.364 A 29.079 29.079 0 0 0 47.263 24.113 A 23.759 23.759 0 0 0 47.632 20.02 A 15.851 15.851 0 0 0 47.63 19.757 Q 47.56 15.525 45.214 13.078 A 7.889 7.889 0 0 0 41.33 10.875 A 11.59 11.59 0 0 0 38.532 10.556 A 16.525 16.525 0 0 0 35.432 10.834 A 12.021 12.021 0 0 0 31.356 12.376 Q 28.392 14.196 26.52 17.004 Q 24.648 19.812 23.79 23.14 A 29.079 29.079 0 0 0 23.302 25.391 A 23.759 23.759 0 0 0 22.932 29.484 A 15.851 15.851 0 0 0 22.934 29.747 Q 23.004 33.98 25.35 36.426 A 7.889 7.889 0 0 0 29.234 38.629 Z M 61.88 11.232 L 55.38 38.272 L 50.544 38.272 L 57.044 11.232 L 61.88 11.232 Z M 102.492 15.34 L 97.916 34.476 A 6.903 6.903 0 0 0 98.65 34.581 A 8.29 8.29 0 0 0 99.034 34.606 Q 99.632 34.632 100.204 34.632 A 13.188 13.188 0 0 0 103.177 34.309 A 10.838 10.838 0 0 0 105.508 33.488 Q 107.848 32.344 109.486 30.394 Q 111.124 28.444 112.008 25.922 Q 112.892 23.4 112.892 20.644 Q 112.892 19.5 112.632 18.408 Q 112.372 17.316 111.67 16.484 Q 110.968 15.652 109.772 15.158 A 5.81 5.81 0 0 0 108.695 14.839 Q 108.151 14.731 107.515 14.689 A 12.539 12.539 0 0 0 106.704 14.664 A 12.638 12.638 0 0 0 105.307 14.738 A 10.058 10.058 0 0 0 104.312 14.898 Q 103.22 15.132 102.492 15.34 Z M 138.268 27.924 L 141.388 15.028 A 1.357 1.357 0 0 0 141.221 14.975 Q 141.035 14.928 140.756 14.895 A 7.489 7.489 0 0 0 140.53 14.872 A 15.292 15.292 0 0 0 140.032 14.837 Q 139.803 14.824 139.598 14.821 A 8.927 8.927 0 0 0 139.464 14.82 Q 136.5 14.82 134.108 15.964 Q 131.716 17.108 130.026 19.006 Q 128.336 20.904 127.426 23.426 Q 126.516 25.948 126.516 28.704 Q 126.516 29.796 126.724 30.914 Q 126.932 32.032 127.478 32.89 Q 128.024 33.748 128.934 34.294 Q 129.692 34.749 130.828 34.825 A 7.069 7.069 0 0 0 131.3 34.84 Q 133.484 34.84 135.044 33.904 A 12.285 12.285 0 0 0 137.302 32.18 A 11.188 11.188 0 0 0 137.748 31.72 Q 137.8 30.836 137.93 29.874 Q 138.06 28.912 138.268 27.924 Z M 32.864 34.84 Q 35.204 34.84 37.05 33.488 A 11.619 11.619 0 0 0 39.885 30.482 A 13.465 13.465 0 0 0 40.17 30.03 A 17.469 17.469 0 0 0 41.942 26.006 A 19.724 19.724 0 0 0 42.12 25.376 A 20.145 20.145 0 0 0 42.73 21.946 A 17.508 17.508 0 0 0 42.796 20.436 A 9.966 9.966 0 0 0 42.661 18.742 Q 42.403 17.248 41.652 16.224 A 3.485 3.485 0 0 0 39.999 15.018 Q 39.398 14.797 38.651 14.714 A 8.622 8.622 0 0 0 37.7 14.664 Q 35.36 14.664 33.514 16.016 A 11.619 11.619 0 0 0 30.68 19.022 A 13.465 13.465 0 0 0 30.394 19.474 A 17.469 17.469 0 0 0 28.622 23.498 A 19.724 19.724 0 0 0 28.444 24.128 A 20.145 20.145 0 0 0 27.834 27.558 A 17.508 17.508 0 0 0 27.768 29.068 A 9.966 9.966 0 0 0 27.903 30.762 Q 28.161 32.256 28.912 33.28 A 3.485 3.485 0 0 0 30.566 34.486 Q 31.166 34.707 31.914 34.79 A 8.622 8.622 0 0 0 32.864 34.84 Z M 59.992 6.195 A 3.243 3.243 0 0 0 60.996 6.344 Q 62.244 6.344 63.336 5.382 Q 64.428 4.42 64.428 2.86 A 3.668 3.668 0 0 0 64.36 2.138 A 2.467 2.467 0 0 0 63.596 0.754 Q 62.764 0 61.568 0 A 3.212 3.212 0 0 0 60.242 0.28 A 3.749 3.749 0 0 0 59.228 0.962 A 3.107 3.107 0 0 0 58.328 2.461 A 4.292 4.292 0 0 0 58.188 3.588 A 3.513 3.513 0 0 0 58.252 4.274 A 2.38 2.38 0 0 0 58.994 5.616 A 2.727 2.727 0 0 0 59.992 6.195 Z" vector-effect="non-scaling-stroke"/></g></svg>
