<?xml version="1.0" encoding="UTF-8" standalone="no"?>
<svg width="200px" height="200px" viewBox="0 0 200 200" version="1.1" xmlns="http://www.w3.org/2000/svg" xmlns:xlink="http://www.w3.org/1999/xlink" xmlns:sketch="http://www.bohemiancoding.com/sketch/ns">
    <!-- Generator: Sketch 3.3.2 (12043) - http://www.bohemiancoding.com/sketch -->
    <title>hosted-catalog</title>
    <desc>Created with Sketch.</desc>
    <defs></defs>
    <g id="Page-1" stroke="none" stroke-width="1" fill="none" fill-rule="evenodd" sketch:type="MSPage">
        <g id="hosted-catalog" sketch:type="MSArtboardGroup" fill="#F99A23">
            <g id="hosted-catalogue-copy" sketch:type="MSLayerGroup" transform="translate(10.000000, 21.000000)">
                <g id="Group" transform="translate(25.507692, 4.500000)" sketch:type="MSShapeGroup">
                    <g transform="translate(76.384615, 0.000000)" id="Shape">
                        <path d="M26.4369231,11 C23.9584615,11 22.0307692,9.075 22.0307692,6.6 C22.0307692,4.125 23.9584615,2.2 26.4369231,2.2 C28.9153846,2.2 30.8430769,4.125 30.8430769,6.6 C30.8430769,9.075 28.9153846,11 26.4369231,11 L26.4369231,11 Z M26.4369231,4.95 C25.6107692,4.95 24.7846154,5.775 24.7846154,6.6 C24.7846154,7.425 25.3353846,8.25 26.4369231,8.25 C27.2630769,8.25 28.0892308,7.425 28.0892308,6.6 C28.0892308,5.775 27.2630769,4.95 26.4369231,4.95 L26.4369231,4.95 Z"></path>
                        <g transform="translate(0.000000, 49.500000)">
                            <path d="M5.50769231,9.9 C2.75384615,9.9 0.550769231,7.7 0.550769231,4.95 C0.550769231,2.2 2.75384615,0 5.50769231,0 C8.26153846,0 10.4646154,2.2 10.4646154,4.95 C10.4646154,7.7 8.26153846,9.9 5.50769231,9.9 L5.50769231,9.9 Z M5.50769231,2.75 C4.13076923,2.75 3.30461538,3.85 3.30461538,4.95 C3.30461538,6.325 4.40615385,7.15 5.50769231,7.15 C6.88461538,7.15 7.71076923,6.05 7.71076923,4.95 C7.71076923,3.85 6.88461538,2.75 5.50769231,2.75 L5.50769231,2.75 Z"></path>
                            <path d="M50.9461538,3.575 L19.2769231,3.575 C18.4507692,3.575 17.9,3.025 17.9,2.2 C17.9,1.375 18.4507692,0.825 19.2769231,0.825 L50.9461538,0.825 C51.7723077,0.825 52.3230769,1.375 52.3230769,2.2 C52.3230769,3.025 51.7723077,3.575 50.9461538,3.575 L50.9461538,3.575 Z"></path>
                            <path d="M27.5384615,9.075 L19.2769231,9.075 C18.4507692,9.075 17.9,8.525 17.9,7.7 C17.9,6.875 18.4507692,6.325 19.2769231,6.325 L27.5384615,6.325 C28.3646154,6.325 28.9153846,6.875 28.9153846,7.7 C28.9153846,8.525 28.3646154,9.075 27.5384615,9.075 L27.5384615,9.075 Z"></path>
                            <path d="M40.4815385,9.075 L34.6984615,9.075 C33.8723077,9.075 33.3215385,8.525 33.3215385,7.7 C33.3215385,6.875 33.8723077,6.325 34.6984615,6.325 L40.4815385,6.325 C41.3076923,6.325 41.8584615,6.875 41.8584615,7.7 C41.8584615,8.525 41.3076923,9.075 40.4815385,9.075 L40.4815385,9.075 Z"></path>
                        </g>
                        <g transform="translate(0.000000, 74.250000)">
                            <path d="M5.50769231,12.375 C2.75384615,12.375 0.550769231,10.175 0.550769231,7.425 C0.550769231,4.675 2.75384615,2.475 5.50769231,2.475 C8.26153846,2.475 10.4646154,4.675 10.4646154,7.425 C10.4646154,10.175 8.26153846,12.375 5.50769231,12.375 L5.50769231,12.375 Z M5.50769231,4.95 C4.13076923,4.95 3.30461538,6.05 3.30461538,7.15 C3.30461538,8.525 4.40615385,9.35 5.50769231,9.35 C6.88461538,9.35 7.71076923,8.25 7.71076923,7.15 C7.71076923,6.05 6.88461538,4.95 5.50769231,4.95 L5.50769231,4.95 Z"></path>
                            <path d="M50.9461538,5.775 L19.2769231,5.775 C18.4507692,5.775 17.9,5.225 17.9,4.4 C17.9,3.575 18.4507692,3.025 19.2769231,3.025 L50.9461538,3.025 C51.7723077,3.025 52.3230769,3.575 52.3230769,4.4 C52.3230769,5.225 51.7723077,5.775 50.9461538,5.775 L50.9461538,5.775 Z"></path>
                            <path d="M42.96,11.275 L19.2769231,11.275 C18.4507692,11.275 17.9,10.725 17.9,9.9 C17.9,9.075 18.4507692,8.525 19.2769231,8.525 L42.96,8.525 C43.7861538,8.525 44.3369231,9.075 44.3369231,9.9 C44.3369231,10.725 43.7861538,11.275 42.96,11.275 L42.96,11.275 Z"></path>
                        </g>
                        <g transform="translate(0.000000, 101.750000)">
                            <path d="M5.50769231,11.825 C2.75384615,11.825 0.550769231,9.625 0.550769231,6.875 C0.550769231,4.125 2.75384615,1.925 5.50769231,1.925 C8.26153846,1.925 10.4646154,4.125 10.4646154,6.875 C10.4646154,9.625 8.26153846,11.825 5.50769231,11.825 L5.50769231,11.825 Z M5.50769231,4.675 C4.13076923,4.675 3.30461538,5.775 3.30461538,6.875 C3.30461538,8.25 4.40615385,9.075 5.50769231,9.075 C6.88461538,9.075 7.71076923,7.975 7.71076923,6.875 C7.71076923,5.5 6.88461538,4.675 5.50769231,4.675 L5.50769231,4.675 Z"></path>
                            <path d="M50.9461538,5.225 L19.2769231,5.225 C18.4507692,5.225 17.9,4.675 17.9,3.85 C17.9,3.025 18.4507692,2.475 19.2769231,2.475 L50.9461538,2.475 C51.7723077,2.475 52.3230769,3.025 52.3230769,3.85 C52.3230769,4.675 51.7723077,5.225 50.9461538,5.225 L50.9461538,5.225 Z"></path>
                            <path d="M42.96,10.725 L19.2769231,10.725 C18.4507692,10.725 17.9,10.175 17.9,9.35 C17.9,8.525 18.4507692,7.975 19.2769231,7.975 L42.96,7.975 C43.7861538,7.975 44.3369231,8.525 44.3369231,9.35 C44.3369231,10.175 43.7861538,10.725 42.96,10.725 L42.96,10.725 Z"></path>
                        </g>
                    </g>
                    <path d="M20.7569231,71.5 L20.7569231,71.5 L6.16153846,70.95 C2.85692308,70.95 0.103076923,67.925 0.103076923,64.625 C0.103076923,61.325 3.13230769,58.575 6.43692308,58.575 L21.0323077,59.125 C24.3369231,59.125 27.0907692,62.15 27.0907692,65.45 C26.8153846,68.75 24.0615385,71.5 20.7569231,71.5 L20.7569231,71.5 Z M6.43692308,61.325 C4.50923077,61.325 2.85692308,62.7 2.85692308,64.625 C2.85692308,66.55 4.23384615,68.2 6.16153846,68.2 L20.4815385,68.75 L20.4815385,70.125 L20.4815385,68.75 C22.4092308,68.75 23.7861538,67.375 24.0615385,65.45 C24.0615385,63.525 22.6846154,61.875 20.7569231,61.875 L6.43692308,61.325 L6.43692308,61.325 L6.43692308,61.325 Z" id="Shape"></path>
                </g>
                <path d="M172.941538,20.725 L151.736923,20.725 L151.736923,17.425 L145.127692,17.425 C140.996923,17.425 137.416923,14.125 137.416923,10 C137.416923,5.325 134.112308,1.2 129.430769,0.375 C123.923077,-0.45 119.241538,3.95 119.241538,9.45 L119.241538,9.725 C119.241538,13.85 115.936923,17.425 111.530769,17.425 L104.646154,17.425 L104.646154,20.725 L83.4415385,20.725 C80.4123077,20.725 77.9338462,23.2 77.9338462,26.225 L77.9338462,27.6 L74.3538462,27.6 C72.7015385,27.6 71.0492308,28.425 70.2230769,29.525 L59.7584615,42.175 C59.4830769,42.45 58.9323077,42.45 58.6569231,42.175 L48.1923077,29.525 C47.0907692,28.15 45.7138462,27.6 44.0615385,27.6 L6.05846154,27.6 C3.85538462,27.6 1.92769231,28.7 1.10153846,30.625 C0.275384615,32.55 0.550769231,34.75 1.92769231,36.4 C1.92769231,36.4 12.1169231,48.5 15.6969231,52.625 C16.5230769,53.45 16.7984615,54.825 16.7984615,55.925 L16.7984615,132.65 C16.7984615,135.4 18.7261538,137.6 21.48,138.15 L57.8307692,143.65 L58.6569231,143.65 L78.2092308,143.65 L78.2092308,146.125 C78.2092308,149.15 80.6876923,151.625 83.7169231,151.625 L172.941538,151.625 C175.970769,151.625 178.449231,149.15 178.449231,146.125 L178.449231,26.225 C178.449231,23.2 175.970769,20.725 172.941538,20.725 L172.941538,20.725 Z M108.776923,20.175 L111.806154,20.175 C117.589231,20.175 122.270769,15.5 122.270769,9.725 L122.270769,9.45 C122.270769,5.6 125.575385,2.575 129.430769,3.125 C132.46,3.4 134.938462,6.425 134.938462,9.725 C134.938462,15.5 139.62,20.175 145.403077,20.175 L148.156923,20.175 C148.707692,20.175 149.258462,20.725 149.258462,21.275 L149.258462,30.625 C149.258462,31.175 148.707692,31.45 148.432308,31.45 L108.501538,31.45 C107.950769,31.45 107.675385,30.9 107.675385,30.625 L107.675385,21.275 C107.4,20.725 107.950769,20.175 108.776923,20.175 L108.776923,20.175 Z M151.736923,34.475 L151.736923,30.625 L167.433846,30.625 C167.709231,30.625 167.984615,30.9 167.984615,31.175 L167.984615,129.9 L162.752308,129.9 C161.1,129.9 159.447692,131.275 159.447692,133.2 L159.447692,140.075 L88.9492308,140.075 C88.6738462,140.075 88.3984615,139.8 88.3984615,139.525 L88.3984615,31.175 C88.3984615,30.9 88.6738462,30.625 88.9492308,30.625 L104.646154,30.625 L104.646154,34.475 L151.736923,34.475 L151.736923,34.475 Z M167.709231,132.65 L167.709231,132.65 L162.476923,138.7 L162.476923,133.2 C162.476923,132.925 162.752308,132.65 163.027692,132.65 L167.709231,132.65 L167.709231,132.65 Z M74.6292308,32.825 L78.2092308,32.825 L78.2092308,33.65 L67.4692308,44.375 L69.3969231,46.3 L78.2092308,37.5 L78.2092308,49.05 L63.3384615,49.05 C63.3384615,48.225 63.3384615,47.675 63.0630769,46.85 L74.6292308,32.825 L74.6292308,32.825 Z M60.86,54.825 L72.7015385,54.825 L67.1938462,60.325 L69.1215385,62.25 L76.5569231,54.825 L77.9338462,54.825 L77.9338462,65.275 L67.1938462,76 L69.1215385,77.925 L77.9338462,69.125 L77.9338462,80.95 L67.1938462,91.675 L69.1215385,93.6 L77.9338462,84.8 L77.9338462,96.625 L67.1938462,107.35 L69.1215385,109.275 L77.9338462,100.475 L77.9338462,112.3 L67.1938462,123.025 L69.1215385,124.95 L77.9338462,116.15 L77.9338462,128.25 L68.02,138.15 L59.7584615,138.15 L59.7584615,54.55 C60.3092308,54.825 60.5846154,54.825 60.86,54.825 L60.86,54.825 Z M6.05846154,32.825 L44.0615385,32.825 L55.9030769,47.125 C55.6276923,47.675 55.6276923,48.5 55.6276923,49.325 L19.8276923,49.325 L6.05846154,32.825 L6.05846154,32.825 Z M22.3061538,54.825 L57.28,54.825 L57.28,137.875 L22.3061538,132.65 L22.3061538,54.825 L22.3061538,54.825 Z M72.1507692,138.15 L77.9338462,132.375 L77.9338462,138.15 L72.1507692,138.15 L72.1507692,138.15 Z M172.941538,146.125 L172.941538,146.125 L83.4415385,146.125 L83.4415385,26.225 L104.646154,26.225 L104.646154,27.875 L88.9492308,27.875 C87.2969231,27.875 85.6446154,29.25 85.6446154,31.175 L85.6446154,139.525 C85.6446154,141.175 87.0215385,142.825 88.9492308,142.825 L160.273846,142.825 C161.650769,142.825 162.752308,142.275 163.578462,141.45 L169.636923,134.575 C170.463077,133.75 170.738462,132.65 170.738462,131.55 L170.738462,31.175 C170.738462,29.525 169.361538,27.875 167.433846,27.875 L151.736923,27.875 L151.736923,26.225 L172.941538,26.225 L172.941538,146.125 L172.941538,146.125 Z" id="Shape" sketch:type="MSShapeGroup"></path>
            </g>
        </g>
    </g>
</svg>
