<svg id="svg" version="1.1" xmlns="http://www.w3.org/2000/svg" xmlns:xlink="http://www.w3.org/1999/xlink" width="400" height="400" viewBox="0, 0, 400,400">
    <g xmlns="http://www.w3.org/2000/svg" id="svgg"><path id="path1" d="M134.656 51.865 C 121.801 56.574,112.910 91.984,120.706 107.427 C 125.302 116.531,142.251 112.466,147.500 101.001 C 153.580 87.720,156.033 70.236,153.133 60.856 C 150.884 53.584,141.899 49.212,134.656 51.865 M175.611 53.287 C 172.721 54.089,171.827 56.202,172.622 60.352 C 174.251 68.844,180.379 71.073,184.646 64.725 C 188.881 58.423,183.169 51.191,175.611 53.287 M138.010 56.948 C 144.777 64.425,140.614 94.862,131.381 105.416 C 121.427 116.795,118.715 85.142,127.955 65.430 C 131.336 58.216,135.772 54.474,138.010 56.948 M144.883 56.816 C 151.217 60.092,151.778 74.908,146.214 91.992 C 143.448 100.488,141.663 103.521,138.326 105.397 C 136.848 106.227,135.732 105.734,137.132 104.869 C 137.762 104.479,140.894 97.661,142.013 94.244 C 146.110 81.725,146.843 66.637,143.748 58.494 C 143.320 57.367,142.969 56.401,142.969 56.348 C 142.968 56.081,143.906 56.311,144.883 56.816 M180.551 57.954 C 182.250 59.245,181.734 63.103,179.762 63.859 C 178.547 64.326,176.563 60.565,176.563 57.793 C 176.563 57.239,179.780 57.369,180.551 57.954 M133.702 65.217 C 133.251 65.637,132.759 66.542,132.609 67.227 C 132.458 67.912,131.720 69.088,130.968 69.840 C 128.300 72.508,128.012 74.351,129.492 79.297 C 131.211 85.038,130.593 89.863,128.217 89.267 C 125.930 88.693,124.418 91.577,126.172 93.164 C 126.602 93.553,126.953 94.250,126.953 94.712 C 126.953 98.026,130.805 97.634,131.474 94.251 C 131.611 93.560,132.160 92.506,132.694 91.908 C 135.189 89.114,135.595 84.311,133.824 78.544 C 132.618 74.621,132.614 74.550,133.531 73.418 L 134.249 72.531 135.093 73.375 C 137.492 75.774,139.967 72.308,137.746 69.659 C 137.050 68.828,136.868 68.236,137.012 67.270 C 137.360 64.922,135.354 63.678,133.702 65.217 M67.578 66.129 C 65.723 67.064,66.276 69.922,68.313 69.922 C 70.413 69.922,71.363 67.847,69.922 66.406 C 69.009 65.493,68.871 65.477,67.578 66.129 M177.734 89.415 C 166.339 91.943,157.088 113.864,156.364 140.053 C 155.784 161.052,160.620 173.732,169.743 175.132 C 188.139 177.955,203.243 156.605,203.274 127.734 C 203.301 102.160,192.608 86.115,177.734 89.415 M181.912 95.379 C 192.504 105.595,189.231 149.844,176.673 166.211 C 163.791 183.000,155.138 147.199,164.396 115.417 C 169.235 98.804,176.658 90.312,181.912 95.379 M189.707 96.698 C 192.343 98.708,195.334 104.193,196.835 109.766 C 202.867 132.169,196.170 159.469,182.487 168.259 C 179.836 169.962,179.627 169.706,181.439 166.976 C 185.280 161.190,188.151 153.509,190.634 142.383 C 191.742 137.417,192.574 128.832,192.576 122.348 C 192.580 110.220,191.628 104.762,188.013 96.191 C 187.694 95.434,188.280 95.610,189.707 96.698 M95.508 110.504 C 88.753 111.758,81.467 119.202,80.422 125.916 C 78.680 137.106,92.853 170.959,103.912 182.024 C 111.741 189.856,121.420 189.636,129.387 181.445 C 138.196 172.390,129.282 138.390,113.141 119.473 C 107.088 112.379,101.290 109.430,95.508 110.504 M175.578 112.408 C 174.984 112.836,174.219 114.752,174.219 115.812 C 174.219 116.394,173.932 116.835,173.456 116.986 C 168.034 118.707,167.152 125.788,171.304 134.261 C 174.527 140.838,175.414 144.549,174.039 145.690 C 173.028 146.530,170.524 146.641,169.390 145.898 C 168.442 145.277,168.283 145.273,167.412 145.843 C 165.375 147.178,165.914 149.096,168.652 150.254 C 169.677 150.688,169.922 151.015,169.922 151.945 C 169.922 153.164,170.791 153.906,172.218 153.906 C 173.126 153.906,174.217 152.530,174.222 151.378 C 174.224 150.865,174.774 150.272,175.781 149.697 C 180.236 147.153,180.048 142.430,175.076 132.031 C 173.191 128.088,172.915 127.062,173.005 124.346 C 173.097 121.609,176.143 119.619,178.003 121.081 C 179.916 122.586,181.641 121.915,181.641 119.665 C 181.641 118.679,181.333 118.147,180.273 117.302 C 179.156 116.411,178.906 115.948,178.906 114.774 C 178.906 112.662,177.054 111.345,175.578 112.408 M102.408 115.858 C 116.372 122.894,132.547 161.325,127.688 175.922 C 122.586 191.248,97.938 158.510,94.110 131.325 C 92.303 118.487,95.563 112.409,102.408 115.858 M89.523 124.592 C 89.094 144.572,105.245 177.387,118.048 182.549 C 118.998 182.932,117.476 183.582,115.625 183.584 C 107.366 183.594,95.614 166.373,87.892 142.943 C 83.493 129.595,83.453 125.059,87.697 120.362 C 89.702 118.142,89.663 118.052,89.523 124.592 M103.287 130.368 C 102.264 131.083,102.033 132.161,102.575 133.696 C 103.051 135.045,103.036 135.361,102.445 136.457 C 100.130 140.754,101.903 144.871,107.530 148.265 C 113.078 151.612,114.836 153.407,114.841 155.730 C 114.845 157.639,114.485 158.203,113.262 158.203 C 112.159 158.203,110.938 159.378,110.938 160.438 C 110.938 161.402,112.476 162.500,113.825 162.500 C 114.945 162.500,115.191 162.666,115.418 163.574 C 115.991 165.870,117.962 166.752,119.275 165.301 C 120.111 164.378,120.090 163.738,119.152 161.551 C 118.567 160.185,118.473 159.517,118.762 158.758 C 120.597 153.930,117.595 149.125,109.968 144.683 C 105.880 142.303,104.856 140.388,106.553 138.292 C 107.232 137.454,107.272 137.450,108.457 138.131 C 109.970 138.999,111.719 138.149,111.719 136.544 C 111.719 135.500,109.684 133.237,108.661 133.144 C 108.302 133.111,107.787 133.065,107.516 133.042 C 107.246 133.019,106.719 132.387,106.344 131.637 C 105.665 130.274,104.256 129.690,103.287 130.368 M137.461 145.656 L 136.555 146.390 137.232 151.418 C 137.604 154.183,137.904 157.983,137.899 159.863 C 137.890 163.508,138.500 164.844,140.174 164.844 C 142.027 164.844,142.319 163.711,142.058 157.524 C 141.595 146.554,140.343 143.322,137.461 145.656 M237.630 162.740 C 237.030 163.656,237.020 163.869,237.536 164.791 C 238.655 166.791,241.406 165.962,241.406 163.625 C 241.406 161.632,238.762 161.012,237.630 162.740 M59.071 167.014 C 57.387 168.194,58.137 170.703,60.174 170.703 C 62.256 170.703,63.142 168.597,61.645 167.203 C 60.619 166.247,60.210 166.217,59.071 167.014 M182.813 185.387 C 181.846 185.463,178.418 185.715,175.195 185.948 C 155.244 187.388,141.389 192.939,140.034 200.036 C 139.595 202.336,138.997 203.113,137.356 203.519 C 133.920 204.370,132.558 204.843,130.949 205.746 C 129.288 206.679,129.277 206.680,128.215 205.930 C 125.458 203.984,115.450 199.589,103.706 195.169 C 99.412 193.552,94.404 191.635,92.578 190.908 C 81.153 186.359,74.126 186.384,70.260 190.988 C 68.947 192.552,68.943 192.553,67.188 192.143 C 64.782 191.582,57.633 191.910,55.521 192.678 C 44.227 196.790,44.687 211.160,56.445 221.566 C 60.917 225.523,66.463 228.528,87.109 238.182 C 120.906 253.984,136.223 258.746,164.681 262.301 C 185.389 264.887,192.324 266.345,200.898 269.914 C 206.357 272.187,213.144 276.826,213.480 278.516 C 214.637 284.334,215.407 286.010,218.433 289.292 L 219.989 290.980 219.588 293.550 C 218.228 302.289,223.320 309.185,247.852 331.827 C 252.793 336.388,258.897 342.255,261.415 344.864 C 266.196 349.818,266.468 349.992,267.882 349.001 C 270.184 347.388,267.217 343.888,250.003 327.910 C 233.188 312.301,225.757 304.074,224.191 299.331 C 222.686 294.770,225.822 287.520,232.267 280.664 C 236.150 276.534,243.614 268.428,246.094 265.649 C 251.293 259.822,265.451 245.028,272.447 238.112 C 283.802 226.886,289.904 227.856,305.800 243.410 C 309.174 246.712,313.776 251.165,316.026 253.306 C 318.276 255.447,322.314 259.314,325.000 261.900 C 327.686 264.486,331.377 267.991,333.203 269.690 C 335.029 271.389,337.490 273.684,338.672 274.789 C 339.854 275.895,341.611 277.475,342.578 278.301 C 343.545 279.127,345.303 280.703,346.484 281.804 C 350.379 285.430,352.860 287.338,352.597 286.505 C 352.464 286.086,352.034 284.472,351.640 282.919 L 350.924 280.097 346.654 276.314 C 344.305 274.233,341.064 271.281,339.453 269.754 C 333.227 263.854,317.113 248.333,310.729 242.087 C 296.545 228.210,288.884 224.287,281.046 226.889 C 279.515 227.397,279.421 227.374,277.393 226.010 C 276.249 225.240,275.022 224.608,274.668 224.606 C 274.307 224.604,273.336 223.530,272.461 222.165 C 269.318 217.261,261.846 208.675,257.802 205.319 C 257.056 204.700,255.326 203.206,253.959 201.999 C 249.289 197.878,242.080 193.506,238.477 192.609 C 237.617 192.395,235.947 191.930,234.766 191.576 C 231.202 190.508,224.388 190.654,217.018 191.955 C 210.182 193.163,210.732 193.250,209.341 190.733 C 206.973 186.448,196.415 184.321,182.813 185.387 M189.091 191.093 C 189.699 194.870,193.574 194.784,193.425 190.997 C 193.366 189.489,193.396 189.453,194.695 189.453 C 200.521 189.453,208.957 193.362,204.989 194.222 C 196.527 196.058,191.739 196.559,179.688 196.871 C 163.752 197.283,156.867 198.332,150.262 201.353 C 147.796 202.481,143.750 202.767,143.750 201.813 C 143.750 199.885,148.894 195.984,153.835 194.165 C 157.719 192.735,157.687 192.738,158.038 193.846 C 158.910 196.594,162.295 196.113,162.188 193.257 L 162.136 191.872 164.735 191.420 C 166.164 191.171,168.795 190.864,170.581 190.738 L 173.828 190.509 173.828 191.856 C 173.828 195.301,177.866 194.885,178.192 191.406 L 178.320 190.039 182.031 189.812 C 188.712 189.404,188.822 189.423,189.091 191.093 M83.245 192.447 C 85.686 193.036,85.938 193.188,85.938 194.076 C 85.938 196.279,88.430 197.274,89.707 195.581 L 90.389 194.678 94.901 196.429 C 100.266 198.510,99.833 198.223,99.316 199.357 C 98.165 201.883,101.311 203.395,103.116 201.183 L 104.119 199.954 107.235 201.115 C 113.612 203.492,113.705 203.557,112.889 205.081 C 111.488 207.699,115.396 209.238,116.915 206.666 L 117.593 205.519 120.307 206.639 C 125.167 208.642,127.707 210.820,128.578 213.727 C 129.222 215.876,129.156 215.882,122.767 214.286 C 110.218 211.150,104.339 208.866,90.039 201.572 C 84.668 198.833,78.826 195.996,77.056 195.268 C 73.458 193.789,73.169 193.326,75.293 192.445 C 77.219 191.646,79.930 191.647,83.245 192.447 M234.570 195.972 C 241.105 197.454,246.342 200.714,255.440 208.965 C 260.243 213.321,268.750 223.241,268.750 224.486 C 268.750 224.682,268.091 225.073,267.285 225.355 C 264.915 226.183,260.382 229.154,256.323 232.539 C 251.304 236.726,218.733 269.159,216.915 271.780 C 215.672 273.573,215.406 273.772,214.827 273.343 C 214.461 273.073,213.164 272.093,211.945 271.165 C 203.759 264.939,191.326 261.204,170.117 258.599 C 148.906 255.994,144.092 255.090,131.688 251.381 C 120.136 247.927,106.782 242.630,91.016 235.245 C 61.398 221.374,57.487 218.860,53.758 211.299 C 49.327 202.314,51.917 196.815,60.871 196.201 C 67.967 195.715,72.279 197.280,92.969 207.857 C 108.796 215.947,128.853 221.518,149.805 223.644 C 151.094 223.774,153.467 224.167,155.078 224.517 C 160.234 225.634,186.221 225.207,188.184 223.973 C 189.275 223.286,189.324 221.842,188.287 220.903 C 187.567 220.252,186.958 220.226,179.791 220.550 C 157.147 221.572,150.295 220.377,147.507 214.920 C 143.260 206.607,154.276 201.668,177.734 201.370 C 187.077 201.251,189.578 201.086,196.094 200.159 C 200.386 199.548,201.480 199.353,213.373 197.071 C 225.106 194.820,228.675 194.635,234.570 195.972 M142.708 208.495 C 141.891 210.449,142.221 213.933,143.459 216.434 C 143.981 217.489,144.344 218.417,144.265 218.495 C 144.105 218.655,139.225 217.910,135.885 217.217 L 133.720 216.768 133.063 213.950 C 132.701 212.401,132.365 210.884,132.316 210.581 C 132.125 209.402,138.348 207.105,141.875 207.053 L 143.320 207.031 142.708 208.495 M272.078 229.309 C 272.222 229.542,272.888 229.606,273.663 229.461 C 275.459 229.124,275.363 229.685,273.340 231.353 C 270.516 233.682,253.684 250.961,245.279 260.160 C 243.220 262.414,239.704 266.246,237.467 268.676 C 228.521 278.393,226.766 280.400,224.517 283.496 C 221.866 287.143,222.058 287.014,221.052 285.840 C 217.934 282.202,217.519 278.703,219.792 275.209 C 221.302 272.887,252.261 241.780,258.008 236.809 C 265.041 230.726,270.993 227.553,272.078 229.309 M236.828 290.657 C 227.166 293.719,232.152 308.932,241.891 306.101 C 248.696 304.123,251.275 296.184,246.453 292.056 C 243.817 289.799,240.882 289.373,236.828 290.657 M242.341 294.531 C 243.264 294.531,244.531 296.112,244.531 297.262 C 244.531 302.490,236.995 303.930,236.139 298.866 C 235.647 295.951,238.388 293.593,241.341 294.391 C 241.627 294.468,242.077 294.531,242.341 294.531 " stroke="none" fill="#F99A23" fill-rule="evenodd"/></g>
</svg>
