<?xml version="1.0" encoding="UTF-8" standalone="no"?>
<svg width="200px" height="200px" viewBox="0 0 200 200" version="1.1" xmlns="http://www.w3.org/2000/svg" xmlns:xlink="http://www.w3.org/1999/xlink" xmlns:sketch="http://www.bohemiancoding.com/sketch/ns">
    <!-- Generator: Sketch 3.3.2 (12043) - http://www.bohemiancoding.com/sketch -->
    <title>payment-buttons</title>
    <desc>Created with Sketch.</desc>
    <defs></defs>
    <g id="Page-1" stroke="none" stroke-width="1" fill="none" fill-rule="evenodd" sketch:type="MSPage">
        <g id="payment-buttons" sketch:type="MSArtboardGroup" fill="#F99A23">
            <g id="payment-btn" sketch:type="MSLayerGroup" transform="translate(10.000000, 31.000000)">
                <path d="M166.607692,70.8501099 C164.404615,70.8501099 162.476923,71.4036264 160.549231,72.5106593 C159.172308,68.0825275 155.041538,64.7614286 150.084615,64.7614286 C147.606154,64.7614286 145.403077,65.5917033 143.475385,66.9754945 C142.924615,66.1452198 142.649231,65.3149451 141.823077,64.7614286 L157.244615,64.7614286 C160.549231,64.7614286 163.027692,61.9938462 163.027692,58.9495055 L163.027692,6.91895604 C163.027692,3.59785714 160.273846,1.10703297 157.244615,1.10703297 L6.60923077,1.10703297 C3.30461538,1.10703297 0.826153846,3.87461538 0.826153846,6.91895604 L0.826153846,58.6727473 C0.826153846,61.9938462 3.58,64.4846703 6.60923077,64.4846703 L106.023077,64.4846703 L106.023077,70.8501099 C99.6892308,72.2339011 95.0076923,78.0458242 95.0076923,84.9647802 L95.0076923,99.3562088 C95.0076923,125.925 123.372308,136.165055 128.329231,136.165055 L146.504615,136.165055 C163.578462,136.165055 177.623077,122.050385 177.623077,104.891374 C177.623077,101.847033 177.898462,81.9204396 177.898462,81.9204396 C177.623077,75.8317582 172.666154,70.8501099 166.607692,70.8501099 L166.607692,70.8501099 Z M6.60923077,59.2262637 C6.33384615,59.2262637 6.33384615,58.9495055 6.33384615,58.9495055 L6.33384615,6.91895604 C6.33384615,6.6421978 6.60923077,6.6421978 6.60923077,6.6421978 L157.244615,6.6421978 C157.52,6.6421978 157.52,6.91895604 157.52,6.91895604 L157.52,58.6727473 C157.52,58.9495055 157.244615,58.9495055 157.244615,58.9495055 L128.329231,58.9495055 L128.329231,33.210989 C128.329231,27.1223077 123.372308,22.1406593 117.313846,22.1406593 C111.255385,22.1406593 106.298462,27.1223077 106.298462,33.210989 L106.298462,58.9495055 L6.60923077,58.9495055 L6.60923077,59.2262637 Z M171.84,104.891374 C171.84,119.006044 160.273846,130.62989 146.229231,130.62989 L128.329231,130.62989 C125.575385,130.353132 100.515385,122.603901 100.515385,99.3562088 L100.515385,84.9647802 C100.515385,81.0901648 102.993846,78.0458242 106.298462,76.662033 L106.298462,101.293516 C106.298462,104.337857 107.124615,107.658956 108.501538,110.703297 C109.052308,111.81033 109.878462,112.363846 110.98,112.363846 C111.255385,112.363846 111.806154,112.363846 112.081538,112.087088 C113.458462,111.533571 114.009231,109.873022 113.458462,108.489231 C112.356923,105.998407 111.806154,103.784341 111.806154,101.293516 L111.806154,33.4877473 C111.806154,30.4434066 114.284615,27.9525824 117.313846,27.9525824 C120.343077,27.9525824 122.821538,30.4434066 122.821538,33.4877473 L122.821538,71.4036264 C122.821538,73.0641758 123.923077,74.1712088 125.575385,74.1712088 C127.227692,74.1712088 128.329231,73.0641758 128.329231,71.4036264 L128.329231,70.5733516 C128.88,68.0825275 131.083077,66.421978 133.561538,66.421978 C136.590769,66.421978 139.069231,68.9128022 139.069231,71.9571429 L139.069231,77.4923077 C139.069231,79.1528571 140.170769,80.2598901 141.823077,80.2598901 C143.475385,80.2598901 144.576923,79.1528571 144.576923,77.4923077 L144.576923,75.8317582 C144.576923,72.7874176 147.055385,70.2965934 150.084615,70.2965934 C153.113846,70.2965934 155.592308,72.7874176 155.592308,75.8317582 L155.592308,82.7507143 C155.592308,84.4112637 156.693846,85.5182967 158.346154,85.5182967 C159.998462,85.5182967 161.1,84.4112637 161.1,82.7507143 L161.1,80.8134066 L161.375385,80.2598901 C162.201538,78.0458242 164.129231,76.3852747 166.607692,76.3852747 C169.636923,76.3852747 172.115385,78.8760989 172.115385,81.9204396 C172.115385,81.9204396 171.84,101.847033 171.84,104.891374 L171.84,104.891374 Z" id="Shape" sketch:type="MSShapeGroup"></path>
                <path d="M90.3261538,32.103956 C91.1523077,30.9969231 91.9784615,29.6131319 91.9784615,27.9525824 C91.9784615,22.9709341 88.9492308,19.9265934 83.9923077,19.9265934 L83.9923077,19.9265934 L83.9923077,13.8379121 C83.9923077,13.5611538 83.7169231,13.5611538 83.7169231,13.5611538 L81.2384615,13.5611538 C80.9630769,13.5611538 80.9630769,13.8379121 80.9630769,13.8379121 L80.9630769,19.9265934 L77.6584615,19.9265934 L77.6584615,13.8379121 C77.6584615,13.5611538 77.3830769,13.5611538 77.3830769,13.5611538 L74.9046154,13.5611538 C74.3538462,13.5611538 74.3538462,13.5611538 74.3538462,13.8379121 L74.3538462,19.9265934 L67.4692308,19.9265934 C67.1938462,19.9265934 67.1938462,20.2033516 67.1938462,20.2033516 L67.1938462,22.6941758 C67.1938462,22.9709341 67.4692308,22.9709341 67.4692308,22.9709341 L67.7446154,22.9709341 C69.3969231,22.9709341 71.0492308,24.3547253 71.0492308,26.292033 L71.0492308,39.2996703 C71.0492308,40.9602198 69.6723077,42.344011 68.02,42.6207692 C67.7446154,42.6207692 67.7446154,42.6207692 67.7446154,42.8975275 L67.1938462,45.3883516 L67.1938462,45.6651099 L67.4692308,45.9418681 L74.3538462,45.9418681 L74.3538462,52.0305495 C74.3538462,52.3073077 74.6292308,52.3073077 74.6292308,52.3073077 L77.1076923,52.3073077 C77.3830769,52.3073077 77.3830769,52.0305495 77.3830769,52.0305495 L77.3830769,45.9418681 L80.6876923,45.9418681 L80.6876923,52.0305495 C80.6876923,52.3073077 80.9630769,52.3073077 80.9630769,52.3073077 L83.4415385,52.3073077 C83.7169231,52.3073077 83.7169231,52.0305495 83.7169231,52.0305495 L83.7169231,45.9418681 L85.3692308,45.9418681 C90.3261538,45.9418681 93.3553846,42.8975275 93.3553846,37.9158791 C93.6307692,35.4250549 92.2538462,33.210989 90.3261538,32.103956 L90.3261538,32.103956 Z M77.3830769,24.9082418 L82.0646154,24.9082418 C83.7169231,24.9082418 85.3692308,26.292033 85.3692308,28.2293407 C85.3692308,29.8898901 83.9923077,31.5504396 82.0646154,31.5504396 L77.3830769,31.5504396 L77.3830769,24.9082418 L77.3830769,24.9082418 Z M83.9923077,40.9602198 L77.6584615,40.9602198 L77.6584615,34.5947802 L83.9923077,34.5947802 C85.6446154,34.5947802 87.2969231,35.9785714 87.2969231,37.9158791 C87.0215385,39.5764286 85.6446154,40.9602198 83.9923077,40.9602198 L83.9923077,40.9602198 Z" id="Shape" sketch:type="MSShapeGroup"></path>
            </g>
        </g>
    </g>
</svg>
