<?xml version="1.0" encoding="UTF-8" standalone="no"?>
<svg width="200px" height="200px" viewBox="0 0 200 200" version="1.1" xmlns="http://www.w3.org/2000/svg" xmlns:xlink="http://www.w3.org/1999/xlink" xmlns:sketch="http://www.bohemiancoding.com/sketch/ns">
    <!-- Generator: Sketch 3.3.2 (12043) - http://www.bohemiancoding.com/sketch -->
    <title>pos</title>
    <desc>Created with Sketch.</desc>
    <defs></defs>
    <g id="Page-1" stroke="none" stroke-width="1" fill="none" fill-rule="evenodd" sketch:type="MSPage">
        <g id="pos" sketch:type="MSArtboardGroup">
            <g id="point-of-sale-copy" sketch:type="MSLayerGroup" transform="translate(21.500000, 10.000000)">
                <path d="M154.520688,15.5854048 C153.414995,13.3740175 151.203607,11.9919004 148.715797,11.715477 L68.82943,0.658540483 C65.5123491,0.105693655 62.4716915,1.76423414 60.813151,4.52846828 L1.10569366,117.862068 C0.276423414,119.520608 0.276423414,121.731996 1.10569366,123.390536 C1.9349639,125.049077 3.59350438,126.431194 5.52846828,126.707617 L48.6505208,133.065356 L48.6505208,136.935283 C48.6505208,139.146671 47.5448272,141.358058 45.3334399,142.463752 L34.5529267,148.82149 L12.4390536,145.227986 C11.33336,144.951563 9.9512429,145.227986 9.12197266,146.057256 C8.29270241,146.886526 7.73985559,147.99222 7.73985559,149.097914 L7.73985559,160.431274 C7.73985559,164.024778 10.5040897,167.341859 14.0975941,168.171129 L71.8700876,178.675219 C72.4229344,178.675219 72.6993578,178.951642 73.2522047,178.951642 C74.3578983,178.951642 75.1871686,178.675219 76.2928622,178.122372 L108.081555,159.32558 C111.675059,157.114193 113.886446,153.244265 113.886446,149.097914 L113.886446,103.764474 L154.797112,22.7724136 C155.902805,20.2846029 155.902805,17.7967921 154.520688,15.5854048 L154.520688,15.5854048 Z M68.0001598,172.041057 L15.7561346,162.642661 C14.6504409,162.366238 13.8211707,161.536967 13.8211707,160.431274 L13.8211707,151.032878 L68.0001598,160.15485 L68.0001598,172.041057 L68.0001598,172.041057 Z M108.357978,149.097914 C108.357978,151.309301 107.252285,153.520688 105.040897,154.626382 L73.8050515,173.146751 C73.8050515,173.146751 73.8050515,173.146751 73.5286281,173.146751 L73.5286281,173.146751 L73.5286281,173.146751 C73.2522047,173.146751 73.2522047,172.870327 73.2522047,172.870327 L73.2522047,158.772733 C73.2522047,156.837769 71.8700876,155.455652 69.9351237,154.902805 L43.1220526,150.480031 L48.097674,147.439373 C51.6911784,145.227986 53.9025657,141.358058 53.9025657,137.211707 L53.9025657,134.171049 L89.8376095,139.423094 L90.9433031,139.423094 C93.9839607,139.423094 96.7481948,137.764554 97.8538885,135.00032 L107.805131,115.097834 L107.805131,149.097914 L108.357978,149.097914 Z M149.82149,20.2846029 L93.4311139,132.512509 C93.1546905,133.341779 92.3254202,133.894626 91.49615,133.894626 L91.2197266,133.894626 L6.35773852,121.455572 C6.0813151,121.455572 6.0813151,121.179149 5.80489169,121.179149 L5.80489169,120.626302 L65.7887725,7.29270241 C66.0651959,6.46343217 66.8944661,6.18700876 68.0001598,6.18700876 L68.0001598,6.18700876 L147.886526,17.2439453 C148.715797,17.2439453 149.268643,17.7967921 149.545067,18.349639 C150.097914,18.9024858 150.097914,19.731756 149.82149,20.2846029 L149.82149,20.2846029 Z" id="Shape" fill="#F99A23" sketch:type="MSShapeGroup"></path>
                <path d="M54.1789891,122.561266 C53.3497189,122.561266 52.796872,122.284843 51.9676018,122.008419 C49.4797911,120.902725 48.3740974,117.862068 49.7562145,115.097834 C51.1383316,112.3336 54.1789891,111.227906 56.6667998,112.3336 C58.0489169,112.886446 58.8781871,113.99214 59.1546106,115.374257 C59.431034,116.756374 59.431034,118.138491 58.8781871,119.520608 C58.0489169,121.455572 56.113953,122.561266 54.1789891,122.561266 L54.1789891,122.561266 Z M54.4554125,114.544987 C53.3497189,114.544987 52.5204486,115.097834 51.9676018,116.203527 C51.414755,117.585645 51.6911784,118.967762 53.0732955,119.797032 C54.1789891,120.349879 55.8375296,119.797032 56.3903764,118.414915 C56.6667998,117.862068 56.6667998,117.032798 56.6667998,116.203527 C56.3903764,115.650681 56.113953,115.097834 55.5611062,114.82141 C55.2846828,114.544987 55.0082594,114.544987 54.4554125,114.544987 L54.4554125,114.544987 Z" id="Shape" fill="#F99A23" sketch:type="MSShapeGroup"></path>
                <path d="M110.569366,17.7967921 L99.7888524,16.4146751 C98.9595821,16.4146751 98.1303119,15.5854048 98.4067353,14.4797112 L98.4067353,14.4797112 C98.4067353,13.6504409 99.2360056,12.8211707 100.341699,13.0975941 L111.122212,14.4797112 C111.951483,14.4797112 112.780753,15.3089814 112.504329,16.4146751 L112.504329,16.4146751 C112.227906,17.2439453 111.398636,17.7967921 110.569366,17.7967921 L110.569366,17.7967921 Z" id="Shape" fill="#F99A23" sketch:type="MSShapeGroup"></path>
                <g id="Group" transform="translate(20.349639, 16.585405)" fill="#F99A23" sketch:type="MSShapeGroup">
                    <path d="M70.8700876,98.7888524 L70.0408174,98.7888524 L4.25204486,88.0083393 C2.86992779,87.7319158 1.76423414,86.9026456 1.21138731,85.7969519 C0.658540483,84.6912583 0.658540483,83.0327178 1.21138731,81.9270241 L43.5041696,2.86992779 C44.3334399,1.21138731 46.2684038,0.382117069 48.2033677,0.658540483 L116.203527,11.1626302 C117.309221,11.4390536 118.138491,11.9919004 118.691338,12.8211707 C119.244185,13.6504409 119.244185,14.7561346 118.691338,15.8618282 L75.5692856,95.7481948 C74.7400154,97.6831587 72.8050515,98.7888524 70.8700876,98.7888524 L70.8700876,98.7888524 Z M47.6505208,3.14635121 C46.8212506,3.14635121 46.2684038,3.42277462 45.9919804,3.97562145 L3.42277462,82.7562944 C3.14635121,83.3091412 3.14635121,83.5855646 3.42277462,84.1384115 C3.69919804,84.6912583 3.97562145,84.9676817 4.52846828,84.9676817 L70.3172408,95.7481948 C71.4229344,96.0246183 72.5286281,95.4717714 73.0814749,94.3660778 L115.927104,14.2032878 L115.927104,13.9268643 C115.927104,13.9268643 115.927104,13.6504409 115.650681,13.6504409 L47.6505208,3.14635121 L47.6505208,3.14635121 L47.6505208,3.14635121 Z" id="Shape"></path>
                </g>
                <path d="M82.3741773,80.2684837 L81.8213305,80.2684837 C79.0570964,79.9920603 79.0570964,79.9920603 78.5042495,82.7562944 C78.5042495,83.3091412 78.2278261,83.5855646 78.2278261,84.1384115 C77.9514027,85.5205285 77.1221325,86.0733754 75.7400154,85.5205285 C74.3578983,85.2441051 74.6343217,84.1384115 74.9107451,83.3091412 C75.1871686,82.2034476 75.463592,81.3741773 75.7400154,80.2684837 C76.0164388,79.4392134 76.0164388,78.8863666 74.9107451,78.8863666 C74.0814749,78.6099432 73.5286281,78.8863666 73.2522047,79.7156368 C72.9757813,80.8213305 72.4229344,82.2034476 72.146511,83.3091412 C71.8700876,84.6912583 71.0408174,84.6912583 69.9351237,84.4148349 C68.82943,84.1384115 68.82943,83.5855646 69.1058535,82.479871 C69.3822769,81.3741773 69.6587003,80.2684837 69.9351237,79.16279 C70.2115471,78.3335198 69.9351237,77.7806729 69.1058535,77.7806729 C68.0001598,77.5042495 67.1708896,77.5042495 66.0651959,77.2278261 C65.2359257,76.9514027 64.130232,77.2278261 64.4066554,76.1221325 C64.4066554,75.0164388 64.9595022,73.9107451 66.0651959,73.6343217 C68.5530066,73.0814749 69.3822769,71.4229344 69.9351237,69.4879705 C70.7643939,66.1708896 71.5936642,63.130232 72.6993578,59.813151 C73.2522047,57.8781871 73.5286281,56.2196467 71.0408174,55.113953 C69.9351237,54.5611062 70.7643939,53.4554125 70.7643939,52.6261423 C71.0408174,51.796872 71.3172408,51.5204486 72.146511,51.796872 C73.2522047,52.0732955 74.6343217,52.3497189 75.7400154,52.6261423 C76.845709,52.9025657 77.3985559,52.6261423 77.6749793,51.5204486 C77.9514027,50.414755 78.2278261,49.3090613 78.5042495,48.2033677 C78.7806729,46.8212506 79.8863666,47.097674 80.7156368,47.3740974 C81.8213305,47.6505208 81.8213305,48.2033677 81.5449071,49.3090613 C81.2684837,50.414755 80.9920603,51.2440252 80.7156368,52.3497189 C80.4392134,53.1789891 80.16279,53.7318359 81.5449071,54.0082594 C82.6506007,54.2846828 82.9270241,53.7318359 83.2034476,52.9025657 C83.479871,51.796872 83.7562944,50.9676018 84.0327178,49.8619081 C84.3091412,48.4797911 85.1384115,48.2033677 86.2441051,48.4797911 C87.6262222,48.7562145 87.6262222,49.5854847 87.0733754,50.6911784 C86.7969519,51.5204486 86.5205285,52.6261423 86.2441051,53.7318359 C85.9676817,54.5611062 86.2441051,55.113953 87.0733754,55.6667998 C91.49615,57.8781871 92.6018436,63.4066554 89.5611861,67.0001598 C88.7319158,67.82943 88.7319158,68.6587003 89.2847627,69.7643939 C91.7725734,74.1871686 87.9026456,80.2684837 82.3741773,80.2684837 L82.3741773,80.2684837 Z M84.0327178,71.4229344 C83.7562944,70.3172408 83.479871,69.2115471 81.8213305,68.9351237 C80.4392134,68.6587003 79.0570964,68.3822769 77.9514027,68.1058535 C76.845709,67.82943 76.2928622,68.1058535 76.0164388,69.4879705 C75.7400154,70.5936642 75.463592,71.4229344 75.1871686,72.5286281 C74.9107451,73.3578983 75.1871686,73.9107451 76.0164388,74.1871686 C77.3985559,74.463592 78.7806729,74.7400154 80.16279,75.0164388 C82.0977539,75.0164388 84.0327178,73.3578983 84.0327178,71.4229344 L84.0327178,71.4229344 Z M82.0977539,65.0651959 C84.0327178,65.0651959 85.1384115,63.6830788 85.1384115,62.0245384 C85.1384115,60.0895745 82.9270241,58.7074574 79.8863666,58.7074574 C79.0570964,58.7074574 77.6749793,61.7481149 77.6749793,63.6830788 C77.6749793,64.2359257 79.8863666,65.0651959 82.0977539,65.0651959 L82.0977539,65.0651959 Z" id="Shape" fill="#F99A23" sketch:type="MSShapeGroup"></path>
            </g>
        </g>
    </g>
</svg>
